<svg xmlns="http://www.w3.org/2000/svg" width="1200" height="630" viewBox="0 0 1200 630">
  <rect width="1200" height="630" fill="#050506"/>
  <rect width="12" height="630" fill="#fafafa"/>
  <path d="M90 95H1110M90 515H1110" stroke="#28282c" stroke-width="2"/>
  <g transform="translate(90 139) scale(1.5)">
    <rect width="64" height="64" rx="14" fill="#050506"/>
    <path d="M32 7c-3.1 0-5.6 1.3-7.4 3.4L21.8 7.2a1 1 0 0 0-1.7.9l.9 6.4A17.6 17.6 0 0 0 14 28.4C14 40.6 21.9 51.2 32 56c10.1-4.8 18-15.4 18-27.6a17.6 17.6 0 0 0-7-14l.9-6.3a1 1 0 0 0-1.7-.9l-2.8 3.2A9.6 9.6 0 0 0 32 7Z" fill="#FAFAFA"/>
    <circle cx="24.6" cy="26.4" r="6.2" fill="#050506"/>
    <circle cx="39.4" cy="26.4" r="6.2" fill="#050506"/>
    <path fill="#050506" d="M32 30.6l3.1 5.2a3.6 3.6 0 0 1-6.2 0L32 30.6Z"/>
  </g>
  <g font-family="Arial, Helvetica, sans-serif" font-size="86" font-weight="700" fill="#fafafa">
    <text x="220" y="218">STARLESS</text>
    <text x="220" y="317">STUDIOS</text>
  </g>
  <text x="95" y="409" fill="#b2b2b8" font-family="Arial, Helvetica, sans-serif" font-size="29">ROBLOX SYSTEMS  /  WEBSITES  /  DEVELOPER TOOLS</text>
  <text x="95" y="564" fill="#8d8d94" font-family="Arial, Helvetica, sans-serif" font-size="21">INDEPENDENT DIGITAL STUDIO</text>
</svg>
